<?xml version="1.0" encoding="UTF-8"?>
<svg id="Layer_1" data-name="Layer 1" xmlns="http://www.w3.org/2000/svg" viewBox="0 0 5804.61 1105.04">
  <defs>
    <style>
      .cls-1 {
        fill: #231f20;
      }

      .cls-2 {
        fill: #0681c2;
      }

      .cls-3 {
        fill: #7b868c;
      }
    </style>
  </defs>
  <path d="m1767.74,561.96c0,107.32-10.31,204.03-30.92,290.14-20.64,86.09-50.39,168.03-89.34,245.91l-242.34-123.88c28.32-54.2,50.68-109.06,67.21-164.48,16.48-55.45,24.74-116.78,24.74-183.99,0-75.48-18.57-132.69-55.72-171.6-37.15-38.93-89.33-58.39-156.54-58.39h-28.27c15.28,14.16,30.92,30.37,46.83,48.67,15.97,18.28,30.07,38.89,42.45,61.89,12.39,23.03,22.72,48.67,30.97,76.98,8.27,28.29,12.38,58.97,12.38,91.96,0,62.53-10.58,120.01-31.82,172.47-21.25,52.53-51.32,97.91-90.25,136.24-38.9,38.32-85.47,68.09-139.72,89.33-54.23,21.24-114.98,31.83-182.25,31.83h-3.47c-67.22,0-128.55-10.59-184.02-31.83-55.4-21.24-102.87-50.41-142.38-87.57-39.5-37.18-69.88-80.5-91.13-130-21.24-49.58-31.86-102.03-31.86-157.48,0-70.73,11.8-128.8,35.42-174.23,23.59-45.4,53.66-85.81,90.19-121.19h-102.62V1.17h721.76c89.64,0,165.74,9.75,228.24,29.2,62.48,19.47,116.13,51.61,160.96,96.4,43.61,43.67,78.15,99.93,103.49,168.98,25.35,68.93,38.01,157.71,38.01,266.21Zm-672.21-7.06c0-49.53-14.71-88.73-44.24-117.66-29.43-28.88-65.46-43.32-107.87-43.32h-3.56c-41.25,0-76.66,14.44-106.1,43.32-29.5,28.93-44.23,68.13-44.23,117.66s15.03,88.74,45.11,117.64c30.06,28.91,66.33,43.37,108.78,43.37h3.52c41.32,0,76.36-14.46,105.25-43.37,28.93-28.9,43.34-68.12,43.34-117.64Z"/>
  <path class="cls-2" d="m111.06,1101.07c-20.63,0-40.59-1.25-59.9-3.73-19.29-2.47-36.35-4.49-51.16-6.14v-163.98h20.96c26.32,0,45-5.76,56.1-17.28,11.09-11.5,16.65-32.47,16.65-62.85V226.85h281.12v625.13c0,48.53-5.99,88.57-17.95,120.23-11.98,31.62-29.33,57.12-52.02,76.48-22.7,19.29-50.38,32.82-82.96,40.65-32.62,7.83-69.58,11.74-110.84,11.74ZM88.79,0h290.98v178.79H88.79V0Z"/>
  <g>
    <path class="cls-3" d="m2341.58,490.99c0,55.57-15.2,93-77.2,93-9.35,0-18.72-1.76-28.07-5.27l5.26-30.99c7.61,2.92,14.62,4.68,22.22,4.68,38.02,0,42.7-28.07,42.7-58.49V173.4h35.08v317.59Zm-17.54-450.94c14.62,0,26.32,11.69,26.32,26.32s-11.69,26.32-26.32,26.32-26.32-11.7-26.32-26.32,11.7-26.32,26.32-26.32Z"/>
    <path class="cls-3" d="m2995.44,392.73c-27.49,40.95-69.02,57.91-116.98,57.91-82.47,0-136.86-59.07-136.86-142.71s56.15-141.54,135.11-141.54c83.05,0,126.92,63.75,126.92,126.33v24.57h-226.93c0,29.24,20.47,101.77,102.35,101.77,35.68,0,73.11-18.72,90.66-47.96l25.73,21.64Zm-26.91-107.04c0-47.96-41.53-87.73-93.58-87.73-76.62,0-98.26,73.7-98.26,87.73h191.84Z"/>
    <path class="cls-3" d="m3398.38,374.6c14.62,28.67,46.79,44.45,78.37,44.45s61.99-18.72,61.99-49.71c0-74.28-160.25-22.22-160.25-125.17,0-52.64,47.96-77.79,92.41-77.79s77.79,16.38,95.34,50.89l-31.59,18.72c-13.46-24.56-32.17-38.02-63.75-38.02-25.15,0-57.32,15.21-57.32,43.28,0,73.11,160.26,16.38,160.26,125.76,0,55.56-46.21,83.63-97.68,83.63-46.21,0-87.73-17.55-108.79-54.98l31-21.06Z"/>
    <path class="cls-3" d="m3962.74,249.43c0-19.88-2.93-62-2.93-76.04h35.1c.58,19.89,1.16,42.11,2.34,47.38,17.55-31.59,45.62-54.39,85.98-54.39,7.02,0,13.45,1.17,20.47,2.92l-4.1,34.51c-5.26-1.76-9.94-2.34-13.45-2.34-60.82,0-88.31,42.11-88.31,94.75v147.39h-35.1v-194.18Z"/>
    <path class="cls-3" d="m4701.41,392.73c-27.49,40.95-69.02,57.91-116.98,57.91-82.47,0-136.86-59.07-136.86-142.71s56.15-141.54,135.11-141.54c83.05,0,126.91,63.75,126.91,126.33v24.57h-226.93c0,29.24,20.47,101.77,102.36,101.77,35.68,0,73.11-18.72,90.65-47.96l25.74,21.64Zm-26.91-107.04c0-47.96-41.53-87.73-93.58-87.73-76.62,0-98.26,73.7-98.26,87.73h191.84Z"/>
    <path class="cls-3" d="m5122.46,371.1c17.55,29.24,54.98,47.96,90.66,47.96,81.88,0,102.35-72.53,102.35-101.77h-226.94v-24.57c0-62.58,43.87-126.33,126.92-126.33s135.12,60.83,135.12,141.54-54.4,142.71-136.87,142.71c-47.96,0-89.49-16.96-116.98-57.91l25.73-21.64Zm193.02-85.4c0-14.04-21.64-87.73-98.26-87.73-52.06,0-93.58,39.78-93.58,87.73h191.84Z"/>
    <path class="cls-3" d="m5750.58,1.45h35.1v442.17h-35.1V1.45Z"/>
  </g>
  <g>
    <path class="cls-1" d="m2644.54,1056.74c-58.47,30.51-122.67,43.22-188.77,43.22-140.47,0-242.8-92.16-242.8-236.45s102.33-236.45,242.8-236.45c71.19,0,134.12,15.89,179.24,57.84l-69.91,76.28c-26.7-27.97-59.12-42.59-109.33-42.59-84.54,0-139.84,61.01-139.84,144.92s55.3,144.92,139.84,144.92c43.22,0,75-12.07,93.43-22.24v-73.1h-80.72v-91.53h176.06v235.17Z"/>
    <path class="cls-1" d="m2962.96,627.07c140.48,0,242.8,92.17,242.8,236.45s-102.33,236.45-242.8,236.45-242.8-92.16-242.8-236.45,102.33-236.45,242.8-236.45Zm0,381.37c84.54,0,139.84-61.02,139.84-144.92s-55.3-144.92-139.84-144.92-139.83,61.01-139.83,144.92,55.3,144.92,139.83,144.92Z"/>
    <path class="cls-1" d="m3289.63,638.52h99.16v358.48h183.69v91.54h-282.85v-450.01Z"/>
    <path class="cls-1" d="m3639.82,638.52h148.74c144.91,0,266.32,61.66,266.32,226.28,0,145.56-118.86,223.74-252.98,223.74h-162.08v-450.01Zm99.16,358.48h51.48c92.16,0,161.45-34.95,161.45-137.28,0-88.35-70.55-129.66-154.45-129.66h-58.47v266.95Z"/>
    <path class="cls-1" d="m4134.93,638.52h167.8c78.82,0,164.63,16.52,164.63,114.41,0,50.22-31.14,84.54-77.54,99.16v1.27c59.11,7.63,98.52,51.48,98.52,109.96,0,94.07-88.99,125.22-169.08,125.22h-184.32v-450.01Zm99.16,179.88h71.83c30.51,0,62.29-12.72,62.29-48.95s-35.59-47.04-66.74-47.04h-67.38v95.98Zm0,186.23h88.98c31.15,0,66.11-13.35,66.11-52.76,0-42.59-47.68-49.58-80.09-49.58h-75v102.34Z"/>
    <path class="cls-1" d="m4563.31,638.52h305.73v91.53h-206.57v83.9h195.13v91.52h-195.13v91.53h218.01v91.54h-317.18v-450.01Z"/>
    <path class="cls-1" d="m4972.61,638.52h174.16c92.16,0,169.71,31.78,169.71,136.65,0,62.93-33.69,111.87-97.25,123.31l114.41,190.05h-118.86l-94.08-179.88h-48.94v179.88h-99.16v-450.01Zm99.16,186.24h58.48c36.23,0,83.27-1.27,83.27-50.22,0-45.13-40.68-52.12-76.91-52.12h-64.83v102.34Z"/>
    <path class="cls-1" d="m5804.61,1056.74c-58.47,30.51-122.67,43.22-188.77,43.22-140.47,0-242.8-92.16-242.8-236.45s102.33-236.45,242.8-236.45c71.19,0,134.11,15.89,179.24,57.84l-69.91,76.28c-26.69-27.97-59.11-42.59-109.32-42.59-84.54,0-139.84,61.01-139.84,144.92s55.3,144.92,139.84,144.92c43.22,0,75-12.07,93.43-22.24v-73.1h-80.72v-91.53h176.06v235.17Z"/>
  </g>
</svg>